<mxfile host="app.diagrams.net" modified="2024-03-05T00:27:49.594Z" agent="Mozilla/5.0 (Windows NT 10.0; Win64; x64) AppleWebKit/537.36 (KHTML, like Gecko) Chrome/122.0.0.0 Safari/537.36" etag="ecwy5imJ-EJyXu7JQjBI" version="23.1.2" type="device">
  <diagram name="Page-1" id="z5-B_55IQ3GN6tRWxMAS">
    <mxGraphModel dx="836" dy="434" grid="1" gridSize="10" guides="1" tooltips="1" connect="1" arrows="1" fold="1" page="1" pageScale="1" pageWidth="850" pageHeight="1100" math="0" shadow="0">
      <root>
        <mxCell id="0" />
        <mxCell id="1" parent="0" />
        <mxCell id="E0XRsRsTjk1O-Du4YUd2-2" value="" style="rounded=0;whiteSpace=wrap;html=1;strokeWidth=1;fillColor=#fff2cc;gradientColor=#ffd966;strokeColor=#d6b656;" vertex="1" parent="1">
          <mxGeometry x="10" y="10" width="830" height="1070" as="geometry" />
        </mxCell>
        <mxCell id="E0XRsRsTjk1O-Du4YUd2-6" value="" style="endArrow=none;html=1;rounded=0;entryX=1;entryY=0.071;entryDx=0;entryDy=0;entryPerimeter=0;strokeWidth=1;" edge="1" parent="1">
          <mxGeometry width="50" height="50" relative="1" as="geometry">
            <mxPoint x="10" y="60.03" as="sourcePoint" />
            <mxPoint x="840" y="59.999999999999915" as="targetPoint" />
            <Array as="points">
              <mxPoint x="370" y="60.03" />
            </Array>
          </mxGeometry>
        </mxCell>
        <mxCell id="E0XRsRsTjk1O-Du4YUd2-7" value="About" style="text;html=1;strokeColor=#666666;fillColor=#f5f5f5;align=center;verticalAlign=middle;whiteSpace=wrap;rounded=0;fontStyle=3;fontSize=16;gradientColor=#b3b3b3;" vertex="1" parent="1">
          <mxGeometry x="50" y="20" width="60" height="30" as="geometry" />
        </mxCell>
        <mxCell id="E0XRsRsTjk1O-Du4YUd2-10" value="Publications" style="text;html=1;strokeColor=#666666;fillColor=#f5f5f5;align=center;verticalAlign=middle;whiteSpace=wrap;rounded=0;fontStyle=3;fontSize=16;gradientColor=#b3b3b3;" vertex="1" parent="1">
          <mxGeometry x="120" y="20" width="130" height="30" as="geometry" />
        </mxCell>
        <mxCell id="E0XRsRsTjk1O-Du4YUd2-12" value="Awards" style="text;html=1;strokeColor=#666666;fillColor=#f5f5f5;align=center;verticalAlign=middle;whiteSpace=wrap;rounded=0;fontStyle=3;fontSize=16;gradientColor=#b3b3b3;" vertex="1" parent="1">
          <mxGeometry x="260" y="20" width="130" height="30" as="geometry" />
        </mxCell>
        <mxCell id="E0XRsRsTjk1O-Du4YUd2-13" value="Innovations" style="text;html=1;strokeColor=#666666;fillColor=#f5f5f5;align=center;verticalAlign=middle;whiteSpace=wrap;rounded=0;fontStyle=3;fontSize=16;gradientColor=#b3b3b3;" vertex="1" parent="1">
          <mxGeometry x="400" y="20" width="130" height="30" as="geometry" />
        </mxCell>
        <mxCell id="E0XRsRsTjk1O-Du4YUd2-15" value="Blogs" style="text;html=1;strokeColor=#666666;fillColor=#f5f5f5;align=center;verticalAlign=middle;whiteSpace=wrap;rounded=0;fontStyle=3;fontSize=16;gradientColor=#b3b3b3;" vertex="1" parent="1">
          <mxGeometry x="540" y="20" width="130" height="30" as="geometry" />
        </mxCell>
        <mxCell id="E0XRsRsTjk1O-Du4YUd2-16" value="Quotes" style="text;html=1;strokeColor=#666666;fillColor=#f5f5f5;align=center;verticalAlign=middle;whiteSpace=wrap;rounded=0;fontStyle=3;fontSize=16;gradientColor=#b3b3b3;" vertex="1" parent="1">
          <mxGeometry x="680" y="20" width="130" height="30" as="geometry" />
        </mxCell>
        <mxCell id="E0XRsRsTjk1O-Du4YUd2-18" value="" style="rounded=1;whiteSpace=wrap;html=1;fillColor=#d5e8d4;gradientColor=#97d077;strokeColor=#82b366;" vertex="1" parent="1">
          <mxGeometry x="260" y="80" width="550" height="140" as="geometry" />
        </mxCell>
        <mxCell id="E0XRsRsTjk1O-Du4YUd2-19" value="&lt;h1&gt;About Me&lt;/h1&gt;&lt;p&gt;Albert Einstein [born 14 March 1879 , died 18 April 1955] was a German-born theoretical physicist, widely held to be one of the greatest and most influential scientists of all time.&lt;br&gt;&lt;/p&gt;" style="text;html=1;spacing=5;spacingTop=-20;whiteSpace=wrap;overflow=hidden;rounded=0;" vertex="1" parent="1">
          <mxGeometry x="270" y="90" width="520" height="120" as="geometry" />
        </mxCell>
        <mxCell id="E0XRsRsTjk1O-Du4YUd2-20" value="Albert Einstein" style="text;html=1;strokeColor=none;fillColor=none;align=center;verticalAlign=middle;whiteSpace=wrap;rounded=0;fontSize=27;" vertex="1" parent="1">
          <mxGeometry x="30" y="180" width="200" height="30" as="geometry" />
        </mxCell>
        <mxCell id="E0XRsRsTjk1O-Du4YUd2-21" value="" style="sketch=0;outlineConnect=0;fontColor=#232F3E;gradientColor=none;fillColor=#232F3D;strokeColor=none;dashed=0;verticalLabelPosition=bottom;verticalAlign=top;align=center;html=1;fontSize=12;fontStyle=0;aspect=fixed;pointerEvents=1;shape=mxgraph.aws4.user;" vertex="1" parent="1">
          <mxGeometry x="90" y="80" width="90" height="90" as="geometry" />
        </mxCell>
        <mxCell id="E0XRsRsTjk1O-Du4YUd2-22" value="&lt;b&gt;Publication 1&lt;/b&gt;&lt;br&gt;Einstein&#39;s groundbreaking paper introducing the theory of special relativity." style="rounded=1;whiteSpace=wrap;html=1;fillColor=#f8cecc;gradientColor=#ea6b66;strokeColor=#b85450;" vertex="1" parent="1">
          <mxGeometry x="260" y="250" width="150" height="100" as="geometry" />
        </mxCell>
        <mxCell id="E0XRsRsTjk1O-Du4YUd2-23" value="&lt;b&gt;Publication 2&lt;/b&gt;&lt;br&gt;Einstein&#39;s paper presenting the general theory of relativity." style="rounded=1;whiteSpace=wrap;html=1;fillColor=#f8cecc;gradientColor=#ea6b66;strokeColor=#b85450;" vertex="1" parent="1">
          <mxGeometry x="450" y="245" width="150" height="105" as="geometry" />
        </mxCell>
        <mxCell id="E0XRsRsTjk1O-Du4YUd2-24" value="&lt;b&gt;Publication 3&lt;/b&gt;&lt;br&gt;Einstein&#39;s groundbreaking paper introducing the theory of special relativity." style="rounded=1;whiteSpace=wrap;html=1;fillColor=#f8cecc;gradientColor=#ea6b66;strokeColor=#b85450;" vertex="1" parent="1">
          <mxGeometry x="650" y="245" width="150" height="105" as="geometry" />
        </mxCell>
        <mxCell id="E0XRsRsTjk1O-Du4YUd2-26" value="&lt;b&gt;Publication 4&lt;br&gt;&lt;/b&gt;This book is a collection of Einstein&#39;s thoughts on religion, science, and philosophy&lt;b&gt;&lt;br&gt;&lt;/b&gt;" style="rounded=1;whiteSpace=wrap;html=1;fillColor=#f8cecc;gradientColor=#ea6b66;strokeColor=#b85450;" vertex="1" parent="1">
          <mxGeometry x="260" y="370" width="140" height="100" as="geometry" />
        </mxCell>
        <mxCell id="E0XRsRsTjk1O-Du4YUd2-27" value="&lt;b&gt;Publication 5&lt;br&gt;&lt;/b&gt;Einstein&#39;s groundbreaking paper introducing the theory of special relativity.&lt;b&gt;&lt;br&gt;&lt;/b&gt;" style="rounded=1;whiteSpace=wrap;html=1;fillColor=#f8cecc;gradientColor=#ea6b66;strokeColor=#b85450;" vertex="1" parent="1">
          <mxGeometry x="450" y="370" width="150" height="100" as="geometry" />
        </mxCell>
        <mxCell id="E0XRsRsTjk1O-Du4YUd2-28" value="&lt;b&gt;Publication 6&lt;br&gt;&lt;/b&gt;Einstein&#39;s groundbreaking paper introducing the theory of special relativity.&lt;b&gt;&lt;br&gt;&lt;/b&gt;" style="rounded=1;whiteSpace=wrap;html=1;fillColor=#f8cecc;gradientColor=#ea6b66;strokeColor=#b85450;" vertex="1" parent="1">
          <mxGeometry x="650" y="370" width="150" height="100" as="geometry" />
        </mxCell>
        <mxCell id="E0XRsRsTjk1O-Du4YUd2-29" value="Publications" style="text;html=1;strokeColor=none;fillColor=none;align=center;verticalAlign=middle;whiteSpace=wrap;rounded=0;fontSize=22;fontStyle=5" vertex="1" parent="1">
          <mxGeometry x="80" y="270" width="110" height="30" as="geometry" />
        </mxCell>
        <mxCell id="E0XRsRsTjk1O-Du4YUd2-30" value="" style="endArrow=none;html=1;rounded=0;entryX=1;entryY=0.071;entryDx=0;entryDy=0;entryPerimeter=0;strokeWidth=1;" edge="1" parent="1">
          <mxGeometry width="50" height="50" relative="1" as="geometry">
            <mxPoint x="10" y="230.03" as="sourcePoint" />
            <mxPoint x="840" y="229.99999999999991" as="targetPoint" />
            <Array as="points">
              <mxPoint x="370" y="230.03" />
            </Array>
          </mxGeometry>
        </mxCell>
        <mxCell id="E0XRsRsTjk1O-Du4YUd2-31" value="" style="endArrow=none;html=1;rounded=0;entryX=1;entryY=0.071;entryDx=0;entryDy=0;entryPerimeter=0;strokeWidth=1;" edge="1" parent="1">
          <mxGeometry width="50" height="50" relative="1" as="geometry">
            <mxPoint x="10" y="490.03" as="sourcePoint" />
            <mxPoint x="840" y="489.9999999999999" as="targetPoint" />
            <Array as="points">
              <mxPoint x="370" y="490.03" />
            </Array>
          </mxGeometry>
        </mxCell>
        <mxCell id="E0XRsRsTjk1O-Du4YUd2-33" value="" style="sketch=0;pointerEvents=1;shadow=1;dashed=0;html=1;strokeColor=none;fillColor=#505050;labelPosition=center;verticalLabelPosition=bottom;verticalAlign=top;outlineConnect=0;align=center;shape=mxgraph.office.concepts.book_journal;direction=east;" vertex="1" parent="1">
          <mxGeometry x="100" y="330" width="70" height="80" as="geometry" />
        </mxCell>
        <mxCell id="E0XRsRsTjk1O-Du4YUd2-35" value="Awards" style="text;html=1;strokeColor=none;fillColor=none;align=center;verticalAlign=middle;whiteSpace=wrap;rounded=0;fontSize=26;fontStyle=5" vertex="1" parent="1">
          <mxGeometry x="500" y="500" width="260" height="30" as="geometry" />
        </mxCell>
        <mxCell id="E0XRsRsTjk1O-Du4YUd2-36" value="&lt;div style=&quot;text-align: justify;&quot;&gt;&lt;span style=&quot;font-size: 13px; background-color: initial;&quot;&gt;&amp;nbsp; &amp;nbsp; &amp;nbsp; &amp;nbsp; &amp;nbsp;1. Nobel Prize in Physics (1921)&lt;/span&gt;&lt;/div&gt;&lt;p style=&quot;font-family: Arial, Helvetica, sans-serif; font-size: 13px;&quot;&gt;&lt;/p&gt;&lt;p style=&quot;text-align: justify; font-family: Arial, Helvetica, sans-serif; font-size: 13px;&quot;&gt;&lt;font style=&quot;font-size: 13px;&quot;&gt;&amp;nbsp; &amp;nbsp; &amp;nbsp; &amp;nbsp; &amp;nbsp;2. Matteucci Medal (1921)&lt;/font&gt;&lt;/p&gt;&lt;p style=&quot;text-align: justify; font-family: Arial, Helvetica, sans-serif; font-size: 13px;&quot;&gt;&lt;font style=&quot;font-size: 13px;&quot;&gt;&amp;nbsp; &amp;nbsp; &amp;nbsp; &amp;nbsp; &amp;nbsp;3. ForMemRS (1921)&lt;/font&gt;&lt;/p&gt;" style="rounded=1;whiteSpace=wrap;html=1;align=left;fillColor=#d5e8d4;gradientColor=#97d077;strokeColor=#82b366;" vertex="1" parent="1">
          <mxGeometry x="50" y="510" width="490" height="110" as="geometry" />
        </mxCell>
        <mxCell id="E0XRsRsTjk1O-Du4YUd2-37" value="" style="endArrow=none;html=1;rounded=0;entryX=1;entryY=0.071;entryDx=0;entryDy=0;entryPerimeter=0;strokeWidth=1;" edge="1" parent="1">
          <mxGeometry width="50" height="50" relative="1" as="geometry">
            <mxPoint x="10" y="640.03" as="sourcePoint" />
            <mxPoint x="840" y="639.9999999999999" as="targetPoint" />
            <Array as="points">
              <mxPoint x="370" y="640.03" />
            </Array>
          </mxGeometry>
        </mxCell>
        <mxCell id="E0XRsRsTjk1O-Du4YUd2-39" value="" style="shape=image;html=1;verticalAlign=top;verticalLabelPosition=bottom;labelBackgroundColor=#ffffff;imageAspect=0;aspect=fixed;image=https://cdn4.iconfinder.com/data/icons/success-filloutline/64/trophy-cup-champion-award-winner-128.png" vertex="1" parent="1">
          <mxGeometry x="592" y="542" width="78" height="78" as="geometry" />
        </mxCell>
        <mxCell id="E0XRsRsTjk1O-Du4YUd2-41" value="Innovations" style="text;html=1;strokeColor=none;fillColor=none;align=center;verticalAlign=middle;whiteSpace=wrap;rounded=0;fontSize=26;fontStyle=5" vertex="1" parent="1">
          <mxGeometry x="30" y="650" width="260" height="30" as="geometry" />
        </mxCell>
        <mxCell id="E0XRsRsTjk1O-Du4YUd2-43" value="&lt;div style=&quot;font-size: 15px;&quot;&gt;&lt;p style=&quot;font-family: Arial, Helvetica, sans-serif;&quot;&gt;1. The Theory of General Relativity&lt;/p&gt;&lt;p style=&quot;font-family: Arial, Helvetica, sans-serif;&quot;&gt;2. The Theory of Special Relativity&lt;/p&gt;&lt;p style=&quot;font-family: Arial, Helvetica, sans-serif;&quot;&gt;3. The Photoelectric Effect&lt;/p&gt;&lt;/div&gt;" style="rounded=1;whiteSpace=wrap;html=1;align=left;fillColor=#f8cecc;gradientColor=#ea6b66;strokeColor=#b85450;" vertex="1" parent="1">
          <mxGeometry x="290" y="660" width="510" height="110" as="geometry" />
        </mxCell>
        <mxCell id="E0XRsRsTjk1O-Du4YUd2-44" value="" style="endArrow=none;html=1;rounded=0;entryX=1;entryY=0.071;entryDx=0;entryDy=0;entryPerimeter=0;strokeWidth=1;" edge="1" parent="1">
          <mxGeometry width="50" height="50" relative="1" as="geometry">
            <mxPoint x="10" y="790.03" as="sourcePoint" />
            <mxPoint x="840" y="789.9999999999999" as="targetPoint" />
            <Array as="points">
              <mxPoint x="370" y="790.03" />
            </Array>
          </mxGeometry>
        </mxCell>
        <mxCell id="E0XRsRsTjk1O-Du4YUd2-46" value="" style="image;aspect=fixed;html=1;points=[];align=center;fontSize=12;image=img/lib/azure2/identity/User_Settings.svg;" vertex="1" parent="1">
          <mxGeometry x="116.37" y="690" width="83.63" height="70" as="geometry" />
        </mxCell>
        <mxCell id="E0XRsRsTjk1O-Du4YUd2-47" value="Blogs" style="text;html=1;strokeColor=none;fillColor=none;align=center;verticalAlign=middle;whiteSpace=wrap;rounded=0;fontSize=26;fontStyle=5" vertex="1" parent="1">
          <mxGeometry x="500" y="810" width="260" height="30" as="geometry" />
        </mxCell>
        <mxCell id="E0XRsRsTjk1O-Du4YUd2-48" value="Blog" style="html=1;whiteSpace=wrap;strokeColor=none;fillColor=#0079D6;labelPosition=center;verticalLabelPosition=middle;verticalAlign=top;align=center;fontSize=12;outlineConnect=0;spacingTop=-6;fontColor=#FFFFFF;sketch=0;shape=mxgraph.sitemap.blog;" vertex="1" parent="1">
          <mxGeometry x="571" y="850" width="120" height="70" as="geometry" />
        </mxCell>
        <mxCell id="E0XRsRsTjk1O-Du4YUd2-49" value="&lt;div style=&quot;font-size: 15px;&quot;&gt;&lt;p style=&quot;font-family: Arial, Helvetica, sans-serif; font-size: 15px;&quot;&gt;1. The Nature of Time: Einstein&#39;s Insights into Relativity&lt;/p&gt;&lt;p style=&quot;font-family: Arial, Helvetica, sans-serif; font-size: 15px;&quot;&gt;2. Quantum Mechanics Unraveled: Einstein&#39;s Contributions&lt;/p&gt;&lt;p style=&quot;font-family: Arial, Helvetica, sans-serif; font-size: 15px;&quot;&gt;3. Black Holes and Curved Space-Time: Einstein&#39;s Predictions&lt;/p&gt;&lt;/div&gt;" style="rounded=1;whiteSpace=wrap;html=1;align=left;fontSize=15;fillColor=#d5e8d4;gradientColor=#97d077;strokeColor=#82b366;" vertex="1" parent="1">
          <mxGeometry x="40" y="810" width="490" height="110" as="geometry" />
        </mxCell>
        <mxCell id="E0XRsRsTjk1O-Du4YUd2-50" value="" style="endArrow=none;html=1;rounded=0;entryX=1;entryY=0.071;entryDx=0;entryDy=0;entryPerimeter=0;strokeWidth=1;" edge="1" parent="1">
          <mxGeometry width="50" height="50" relative="1" as="geometry">
            <mxPoint x="10" y="940.03" as="sourcePoint" />
            <mxPoint x="840" y="939.9999999999999" as="targetPoint" />
            <Array as="points">
              <mxPoint x="370" y="940.03" />
            </Array>
          </mxGeometry>
        </mxCell>
        <mxCell id="E0XRsRsTjk1O-Du4YUd2-51" value="Imagination is more important than knowledge." style="rounded=1;whiteSpace=wrap;html=1;fillColor=#9999FF;fontColor=#000000;strokeColor=#3700CC;" vertex="1" parent="1">
          <mxGeometry x="40" y="960" width="220" height="60" as="geometry" />
        </mxCell>
        <mxCell id="E0XRsRsTjk1O-Du4YUd2-52" value="The only source of knowledge is experience." style="rounded=1;whiteSpace=wrap;html=1;fillColor=#9999FF;" vertex="1" parent="1">
          <mxGeometry x="320" y="960" width="210" height="60" as="geometry" />
        </mxCell>
        <mxCell id="E0XRsRsTjk1O-Du4YUd2-53" value="Strive not to be a success, but rather to be of value." style="rounded=1;whiteSpace=wrap;html=1;fillColor=#9999FF;" vertex="1" parent="1">
          <mxGeometry x="580" y="960" width="220" height="60" as="geometry" />
        </mxCell>
        <mxCell id="E0XRsRsTjk1O-Du4YUd2-54" value="" style="endArrow=none;html=1;rounded=0;entryX=1;entryY=0.071;entryDx=0;entryDy=0;entryPerimeter=0;strokeWidth=1;" edge="1" parent="1">
          <mxGeometry width="50" height="50" relative="1" as="geometry">
            <mxPoint x="10" y="1040.03" as="sourcePoint" />
            <mxPoint x="840" y="1040" as="targetPoint" />
            <Array as="points">
              <mxPoint x="370" y="1040.03" />
            </Array>
          </mxGeometry>
        </mxCell>
        <mxCell id="E0XRsRsTjk1O-Du4YUd2-55" value="Copyright&amp;nbsp; Mr. Albert Einstein. All rights reserved" style="text;html=1;strokeColor=#666666;fillColor=#f5f5f5;align=center;verticalAlign=middle;whiteSpace=wrap;rounded=0;fontSize=16;gradientColor=#b3b3b3;" vertex="1" parent="1">
          <mxGeometry x="10" y="1040" width="830" height="40" as="geometry" />
        </mxCell>
      </root>
    </mxGraphModel>
  </diagram>
</mxfile>
